<svg width="15" height="28" viewBox="0 0 15 28" fill="none" xmlns="http://www.w3.org/2000/svg">
<path d="M7.5 28C5.40909 28 3.63636 27.2533 2.18182 25.76C0.727273 24.2667 0 22.4467 0 20.3V5.6C0 4.06 0.534091 2.74167 1.60227 1.645C2.67045 0.548333 3.95455 0 5.45455 0C6.95455 0 8.23864 0.548333 9.30682 1.645C10.375 2.74167 10.9091 4.06 10.9091 5.6V18.9C10.9091 19.88 10.5795 20.7083 9.92045 21.385C9.26136 22.0617 8.45455 22.4 7.5 22.4C6.54545 22.4 5.73864 22.0617 5.07955 21.385C4.42045 20.7083 4.09091 19.88 4.09091 18.9V5.6H6.13636V18.9C6.13636 19.2967 6.26727 19.6289 6.52909 19.8968C6.79 20.1656 7.11364 20.3 7.5 20.3C7.88636 20.3 8.21045 20.1656 8.47227 19.8968C8.73318 19.6289 8.86364 19.2967 8.86364 18.9V5.6C8.86364 4.62 8.53409 3.79167 7.875 3.115C7.21591 2.43833 6.40909 2.1 5.45455 2.1C4.5 2.1 3.69318 2.43833 3.03409 3.115C2.375 3.79167 2.04545 4.62 2.04545 5.6V20.3C2.04545 21.84 2.57955 23.1583 3.64773 24.255C4.71591 25.3517 6 25.9 7.5 25.9C9 25.9 10.2841 25.3517 11.3523 24.255C12.4205 23.1583 12.9545 21.84 12.9545 20.3V5.6H15V20.3C15 22.4467 14.2727 24.2667 12.8182 25.76C11.3636 27.2533 9.59091 28 7.5 28Z" fill="white"/>
</svg>
