<svg width="28" height="28" viewBox="0 0 28 28" fill="none" xmlns="http://www.w3.org/2000/svg">
<path d="M27.0604 12.9732L12.9734 27.0602C12.576 27.4575 12.1108 27.5977 11.5777 27.4806C11.0453 27.3629 10.6707 27.0512 10.454 26.5455L0.809763 2.81426C0.556918 2.16409 0.66528 1.60422 1.13485 1.13465C1.60442 0.665084 2.16428 0.556722 2.81446 0.809567L26.5457 10.4538C27.0514 10.6705 27.3627 11.0454 27.4798 11.5786C27.5975 12.111 27.4577 12.5758 27.0604 12.9732ZM23.2677 12.4314L5.00878 5.00858L12.4316 23.2675L16.2242 19.4749L11.3479 11.3477L19.4751 16.224L23.2677 12.4314ZM17.8496 17.8495L12.4316 23.2675L23.2677 12.4314L17.8496 17.8495Z" fill="#3B6EED"/>
</svg>
