<svg width="24" height="24" viewBox="0 0 24 24" fill="none" xmlns="http://www.w3.org/2000/svg">
<path d="M16.5 12V5.5C16.5 3.01472 14.4853 1 12 1C9.5147 1 7.5 3.01472 7.5 5.5V12C7.5 14.4853 9.5147 16.5 12 16.5C14.4853 16.5 16.5 14.4853 16.5 12Z" fill="#2F80ED"/>
<path d="M4.5 10.5C5.05228 10.5 5.5 10.9477 5.5 11.5C5.5 15.0899 8.41013 18 12 18C15.5899 18 18.5 15.0899 18.5 11.5C18.5 10.9477 18.9477 10.5 19.5 10.5C20.0523 10.5 20.5 10.9477 20.5 11.5C20.5 15.8561 17.2232 19.4469 13 19.9418V22C13 22.5523 12.5523 23 12 23C11.4477 23 11 22.5523 11 22V19.9418C6.77682 19.4469 3.5 15.8561 3.5 11.5C3.5 10.9477 3.94772 10.5 4.5 10.5Z" fill="#2F80ED"/>
</svg>
